<?xml version="1.0" standalone="no"?>
<!DOCTYPE svg PUBLIC "-//W3C//DTD SVG 20010904//EN"
 "http://www.w3.org/TR/2001/REC-SVG-20010904/DTD/svg10.dtd">
<svg version="1.0" xmlns="http://www.w3.org/2000/svg"
 width="1601.000000pt" height="1601.000000pt" viewBox="0 0 1601.000000 1601.000000"
 preserveAspectRatio="xMidYMid meet">
<metadata>
Created by potrace 1.14, written by Peter Selinger 2001-2017
</metadata>
<g transform="translate(0.000000,1601.000000) scale(0.100000,-0.100000)"
fill="#000000" stroke="none">
<path d="M13537 11763 c-1 -1 -416 -4 -922 -8 -506 -3 -1158 -8 -1450 -10
-291 -2 -908 -7 -1370 -10 -462 -3 -1033 -8 -1270 -10 -236 -2 -851 -6 -1365
-10 -514 -4 -937 -9 -940 -12 -2 -2 1 -17 7 -33 8 -22 8 -30 -2 -34 -7 -2 -17
0 -23 6 -8 8 -15 3 -24 -18 -7 -16 -21 -40 -33 -54 -11 -14 -31 -48 -45 -75
-14 -28 -28 -52 -31 -55 -6 -5 -85 -148 -103 -187 -6 -13 -14 -23 -18 -23 -5
0 -8 -4 -8 -10 0 -8 -86 -166 -120 -220 -5 -8 -21 -37 -36 -65 -14 -27 -33
-58 -41 -67 -9 -10 -13 -18 -9 -18 4 0 -2 -13 -13 -29 -12 -16 -21 -34 -21
-40 0 -6 -4 -11 -10 -11 -5 0 -10 -5 -10 -11 0 -6 -15 -37 -34 -68 -35 -59
-89 -156 -114 -206 -9 -16 -18 -32 -21 -35 -3 -3 -13 -18 -21 -35 -8 -16 -17
-32 -20 -35 -3 -3 -11 -16 -18 -30 -6 -14 -27 -52 -46 -85 -20 -33 -43 -76
-53 -95 -9 -19 -19 -37 -22 -40 -7 -6 -14 -19 -72 -126 -23 -44 -47 -85 -52
-92 -12 -15 -59 -101 -85 -152 -9 -19 -20 -37 -23 -40 -3 -3 -21 -34 -41 -70
-20 -36 -48 -87 -63 -115 -16 -27 -32 -53 -37 -56 -6 -3 -8 -8 -7 -10 3 -4
-80 -160 -90 -169 -3 -3 -14 -22 -23 -42 -10 -21 -22 -38 -27 -38 -9 0 -81
115 -81 131 0 5 -3 9 -7 9 -8 0 -19 18 -71 110 -14 25 -28 47 -31 50 -4 3 -18
26 -31 53 -14 26 -28 47 -32 47 -5 0 -8 5 -8 11 0 6 -13 31 -30 56 -16 24 -30
46 -30 48 0 2 -27 47 -60 100 -33 53 -60 100 -60 106 0 5 -4 9 -9 9 -5 0 -13
10 -17 23 -4 12 -17 36 -29 52 -12 17 -25 37 -29 45 -3 8 -14 27 -24 42 -9 15
-42 69 -73 120 -52 87 -195 321 -247 406 -12 20 -30 52 -39 70 -9 17 -20 32
-25 32 -4 0 -8 4 -8 9 0 5 -22 46 -50 91 -27 45 -50 85 -50 90 0 5 -4 10 -8
12 -7 3 -82 122 -122 195 -9 16 -28 47 -43 70 -15 24 -27 47 -27 53 0 5 -3 10
-8 10 -4 0 -16 15 -26 34 -10 19 -53 70 -96 113 l-77 79 -394 -3 c-217 -2
-533 -5 -704 -7 -170 -2 -403 -5 -517 -5 l-206 -1 6 -22 c7 -30 58 -122 80
-146 7 -7 10 -18 7 -23 -4 -5 -1 -9 4 -9 6 0 11 -6 11 -14 0 -8 3 -16 8 -18 7
-3 45 -69 67 -115 5 -13 13 -23 18 -23 4 0 7 -4 7 -9 0 -5 32 -64 70 -131 39
-67 70 -126 70 -131 0 -5 5 -9 10 -9 6 0 10 -4 10 -9 0 -5 59 -112 131 -238
73 -125 145 -253 162 -283 16 -30 36 -62 43 -71 8 -8 14 -23 14 -31 0 -9 4
-18 8 -20 9 -3 26 -33 130 -218 14 -25 45 -78 69 -118 24 -41 43 -75 43 -77 0
-2 29 -53 65 -114 36 -60 65 -113 65 -117 0 -4 6 -15 14 -23 7 -9 27 -41 43
-71 35 -64 89 -158 103 -180 6 -8 14 -25 19 -37 6 -11 15 -24 20 -28 6 -3 11
-15 11 -25 0 -10 3 -20 8 -22 8 -3 72 -106 72 -115 0 -3 17 -33 37 -67 21 -33
46 -77 56 -96 11 -19 26 -46 34 -60 44 -76 74 -128 85 -150 7 -14 15 -27 19
-30 3 -3 25 -41 50 -85 24 -44 52 -93 61 -110 10 -16 24 -41 30 -55 7 -14 15
-27 18 -30 5 -5 12 -16 58 -99 14 -25 34 -59 44 -76 10 -16 26 -46 35 -65 10
-19 21 -37 24 -40 6 -5 81 -128 121 -200 14 -25 62 -109 107 -187 44 -79 81
-150 81 -159 0 -8 -16 -39 -35 -68 -19 -29 -35 -58 -35 -64 0 -6 -4 -12 -8
-14 -10 -4 -72 -105 -72 -117 0 -5 -4 -11 -8 -13 -4 -1 -21 -25 -37 -52 -17
-28 -40 -66 -52 -85 -12 -20 -30 -49 -39 -65 -8 -15 -32 -54 -52 -85 -20 -31
-37 -58 -37 -61 0 -3 -9 -18 -21 -35 -17 -25 -65 -102 -109 -177 -22 -37 -111
-181 -127 -206 -10 -15 -21 -34 -25 -42 -3 -8 -23 -40 -43 -70 -20 -31 -39
-62 -43 -70 -4 -8 -25 -44 -47 -79 -22 -34 -40 -67 -40 -71 0 -5 -3 -10 -7
-12 -10 -4 -73 -107 -73 -119 0 -5 -4 -9 -9 -9 -5 0 -11 -6 -13 -13 -4 -17
-219 -368 -235 -385 -7 -7 -13 -18 -13 -24 0 -6 -11 -26 -26 -45 -14 -18 -22
-33 -19 -33 3 0 1 -6 -5 -13 -12 -14 -62 -94 -188 -302 -50 -82 -96 -155 -102
-162 -5 -7 -10 -15 -10 -19 0 -4 -7 -15 -16 -25 -14 -15 -13 -19 12 -38 15
-11 25 -21 23 -21 -2 0 251 -256 562 -570 311 -314 563 -572 561 -575 -3 -3
21 -4 54 -3 l59 1 -45 7 c-39 6 151 8 1185 12 136 1 235 5 243 11 9 7 11 6 7
-4 -5 -13 87 -14 657 -13 365 1 683 3 708 3 46 1 46 1 79 64 18 34 54 103 81
152 26 50 79 151 118 225 38 74 86 164 105 200 199 371 732 1400 723 1400 -7
0 402 788 429 825 12 17 91 163 175 325 84 162 161 304 170 315 10 11 156 285
325 608 l308 588 22 -38 c13 -21 38 -66 56 -101 19 -35 40 -68 46 -74 7 -6 13
-14 13 -19 0 -4 14 -32 31 -61 18 -29 117 -199 222 -378 308 -529 299 -514
312 -525 7 -5 43 -64 81 -129 38 -65 80 -138 94 -161 14 -23 70 -120 125 -214
55 -95 113 -193 128 -219 15 -26 36 -65 46 -87 10 -22 98 -174 195 -339 97
-164 176 -303 176 -309 0 -9 36 -72 85 -151 24 -39 61 -101 131 -221 l52 -90
-981 -5 -981 -5 -216 -410 c-118 -226 -227 -429 -241 -450 -94 -143 -429 -687
-429 -696 0 -8 531 -9 1878 -5 1032 3 1895 8 1917 10 40 5 40 5 5 -3 -48 -11
200 -12 816 -4 553 7 522 2 480 68 -11 17 -34 53 -53 82 -34 53 -49 83 -40 83
2 0 35 -52 73 -115 l69 -114 769 -1 c422 0 772 -3 777 -5 4 -3 6 3 4 14 -2 10
-844 1404 -1871 3097 -1027 1694 -1875 3093 -1885 3109 l-18 30 1303 -3 c1037
-2 1305 0 1313 10 13 16 593 1160 613 1209 8 20 20 43 27 50 6 8 14 26 18 41
4 15 13 32 21 39 8 6 14 19 14 29 0 9 9 29 20 43 11 14 20 30 20 37 0 7 9 23
20 37 11 14 20 32 20 40 0 8 9 26 20 40 11 14 20 34 20 43 0 10 7 23 15 30 8
7 15 22 15 35 l0 22 -296 -1 c-163 -1 -296 -2 -297 -3z m-4801 -1175 c9 -31 0
-30 -20 2 -14 25 -14 29 -2 24 8 -3 18 -15 22 -26z m42 -83 c-3 -3 -13 7 -23
22 l-17 28 23 -22 c12 -12 20 -25 17 -28z m46 -61 c8 -21 -7 -17 -21 6 -11 16
-10 18 1 14 8 -3 17 -12 20 -20z m26 -49 c0 -7 6 -18 14 -24 12 -10 29 -51 22
-51 -2 0 -17 22 -34 49 -17 29 -24 47 -16 44 8 -3 14 -11 14 -18z m3145 -5111
c9 -15 12 -23 6 -20 -11 7 -35 46 -28 46 3 0 12 -12 22 -26z m35 -59 c14 -19
14 -19 -2 -6 -10 7 -18 18 -18 24 0 6 1 8 3 6 1 -2 9 -13 17 -24z m45 -71 c9
-15 12 -23 6 -20 -11 7 -35 46 -28 46 3 0 12 -12 22 -26z m35 -59 c14 -19 14
-19 -2 -6 -10 7 -18 18 -18 24 0 6 1 8 3 6 1 -2 9 -13 17 -24z m60 -97 c18
-29 25 -46 18 -38 -18 19 -61 90 -55 90 3 0 20 -24 37 -52z m79 -128 c17 -27
29 -50 27 -50 -5 0 -66 89 -66 96 0 12 11 -1 39 -46z m51 -80 c6 -11 8 -20 6
-20 -3 0 -10 9 -16 20 -6 11 -8 20 -6 20 3 0 10 -9 16 -20z m39 -66 c12 -19
16 -32 11 -29 -11 7 -43 65 -36 65 2 0 13 -16 25 -36z m41 -64 c6 -11 8 -20 6
-20 -3 0 -10 9 -16 20 -6 11 -8 20 -6 20 3 0 10 -9 16 -20z m52 -84 c7 -13 7
-16 -1 -12 -6 4 -18 22 -27 39 -14 30 -14 31 1 12 9 -11 21 -28 27 -39z m36
-59 c11 -19 28 -47 38 -63 l18 -29 -22 19 c-12 11 -22 24 -22 30 0 6 -9 22
-20 36 -18 24 -25 40 -16 40 2 0 13 -15 24 -33z m90 -146 c17 -29 24 -47 16
-44 -8 3 -14 10 -14 17 0 6 -9 22 -20 36 -18 23 -25 40 -16 40 1 0 17 -22 34
-49z m81 -131 c18 -30 25 -47 16 -43 -8 3 -15 11 -15 18 0 7 -9 24 -20 38 -19
24 -25 37 -16 37 2 0 18 -22 35 -50z m80 -130 c17 -27 29 -50 27 -50 -5 0 -66
89 -66 96 0 12 11 -1 39 -46z"/>
</g>
</svg>
